<svg width="19" height="18" viewBox="0 0 19 18" fill="none" xmlns="http://www.w3.org/2000/svg">
<path fill-rule="evenodd" clip-rule="evenodd" d="M14.6985 5.53759C14.6102 5.2583 14.4748 4.99634 14.2982 4.76311L15.5 3.54963L14.9533 3L13.7462 4.20812C13.5141 4.03044 13.2536 3.89404 12.9757 3.80482C12.3551 3.59748 11.681 3.62123 11.0763 3.87174C10.747 4.00868 10.448 4.21007 10.1967 4.4642L8.82544 5.84809L12.666 9.70979L14.0435 8.33125C14.2982 8.07517 14.4944 7.77983 14.632 7.44613C14.8811 6.83824 14.9047 6.16062 14.6985 5.53669V5.53759ZM13.9095 7.14722C13.813 7.38272 13.6709 7.59656 13.4914 7.77627L12.666 8.60607L9.92337 5.84898L10.7488 5.01918C10.9272 4.83851 11.1396 4.69535 11.3737 4.59804C11.6108 4.49647 11.8661 4.44464 12.1239 4.44572C12.3816 4.44679 12.6365 4.50075 12.8728 4.60428C13.1071 4.706 13.3112 4.84609 13.4852 5.02543C13.6627 5.19942 13.803 5.40553 13.9041 5.64109C14.007 5.87852 14.0606 6.13454 14.0617 6.39351C14.0628 6.65248 14.0113 6.90894 13.9104 7.14722H13.9095ZM9.62781 11.6032L10.945 10.2246L10.3982 9.66964L9.07574 11.0535L7.42485 9.39482L8.74822 8.01004L8.19615 7.4613L6.87988 8.83984L6.33314 8.2911L4.95651 9.66964C4.70279 9.92367 4.50264 10.2265 4.36805 10.5601C4.23093 10.8906 4.16063 11.2451 4.16124 11.6032C4.16124 11.8994 4.20562 12.1885 4.29438 12.4687C4.38757 12.7453 4.52337 13.0013 4.70178 13.2378L3.5 14.4513L4.04586 15L5.25296 13.7928C5.48817 13.9712 5.7429 14.1077 6.01805 14.2014C6.29675 14.2907 6.58432 14.3353 6.87899 14.3353C7.23935 14.3353 7.5855 14.2666 7.91746 14.1283C8.25296 13.99 8.54763 13.7928 8.80325 13.5367L10.1746 12.1519L9.62781 11.6032ZM7.62012 13.4082C7.38545 13.5058 7.13383 13.5555 6.87988 13.5545C6.61272 13.5545 6.35976 13.5037 6.12101 13.4029C5.89098 13.3039 5.68121 13.1629 5.50237 12.9871C5.32776 12.8072 5.18782 12.5963 5.08964 12.3652C4.98858 12.124 4.93725 11.8648 4.93876 11.6032C4.93777 11.3468 4.98766 11.0929 5.08551 10.8562C5.18335 10.6195 5.32718 10.4048 5.50858 10.2246L6.33402 9.39482L9.07663 12.1519L8.25118 12.9817C8.07037 13.1637 7.85603 13.3086 7.62012 13.4082Z" fill="#5E5E5E"/>
</svg>
