<svg width="19" height="18" viewBox="0 0 19 18" fill="none" xmlns="http://www.w3.org/2000/svg">
<path d="M3.5 15V13.7143H4.83193V4.38429C4.83193 4.00371 4.93737 3.678 5.14826 3.40714C5.3587 3.13571 5.61177 3 5.90746 3H14.8214V3.85714H5.90746C5.78803 3.85714 5.68991 3.90657 5.6131 4.00543C5.5363 4.10429 5.49789 4.23057 5.49789 4.38429V13.7143H9.14737V15H3.5ZM11.5302 15C11.3775 15 11.2496 14.9337 11.1466 14.8011C11.0436 14.6686 10.9921 14.504 10.9921 14.3074V6.59314C10.9921 6.39714 11.0436 6.23286 11.1466 6.10029C11.2496 5.96771 11.3775 5.90143 11.5302 5.90143H14.9626C15.1149 5.90143 15.2425 5.96771 15.3455 6.10029C15.4485 6.23286 15.5 6.39714 15.5 6.59314V14.3074C15.5 14.504 15.4485 14.6686 15.3455 14.8011C15.2425 14.9337 15.1149 15 14.9626 15H11.5302ZM11.6581 13.7143H14.8347V6.75857H11.6581V13.7143Z" fill="#5E5E5E"/>
</svg>
