<svg width="25" height="25" viewBox="0 0 25 25" fill="none" xmlns="http://www.w3.org/2000/svg">
<path d="M24 12.5746C24 5.90933 18.6241 0.5 12 0.5C5.3759 0.5 0 5.90933 0 12.5746C0 18.6057 4.38723 23.6047 10.1339 24.5V16.0565H7.069V12.5746H10.1339V9.91347C10.1339 6.89171 11.9135 5.21295 14.6571 5.21295C15.967 5.21295 17.3265 5.46166 17.3265 5.46166V8.40881H15.8187C14.3234 8.40881 13.8538 9.35389 13.8538 10.299V12.5622H17.1905L16.6591 16.044H13.8538V24.4876C19.6128 23.6047 24 18.6057 24 12.5746Z" fill="#1877F2"/>
<path d="M16.6712 15.9646L17.2026 12.506H13.8658V10.2579C13.8658 9.30683 14.3478 8.38043 15.8308 8.38043H17.3385V5.44064C17.3385 5.44064 15.9791 5.1936 14.6691 5.1936C11.9255 5.1936 10.1459 6.86113 10.1459 9.86267V12.506H7.08105V15.9646H10.1459V24.3516C10.7515 24.4504 11.3818 24.4998 12.012 24.4998C12.6423 24.4998 13.2726 24.4504 13.8782 24.3516V15.9646H16.6712Z" fill="white"/>
</svg>
