<svg width="19" height="18" viewBox="0 0 19 18" fill="none" xmlns="http://www.w3.org/2000/svg">
<path d="M9.1 6.0839H9.9V15H9.1V6.0839ZM5.825 3.57625C5.58333 3.82111 5.36875 4.08707 5.18125 4.37414C4.99375 4.66121 4.83333 4.96517 4.7 5.28602C4.56667 5.60686 4.46875 5.93404 4.40625 6.26755C4.34375 6.60106 4.30833 6.94512 4.3 7.29974C4.3 7.64591 4.33333 7.98786 4.4 8.32559C4.46667 8.66332 4.56667 8.99261 4.7 9.31346C4.83333 9.6343 4.99167 9.93615 5.175 10.219C5.35833 10.5018 5.575 10.7699 5.825 11.0232L5.25625 11.5995C4.68958 11.0211 4.25625 10.3646 3.95625 9.63008C3.65625 8.89551 3.50417 8.11873 3.5 7.29974C3.5 6.48496 3.65 5.71029 3.95 4.97573C4.25 4.24116 4.68542 3.58259 5.25625 3L5.825 3.57625ZM13.7438 3C14.3104 3.57836 14.7438 4.23483 15.0437 4.96939C15.3438 5.70396 15.4958 6.48074 15.5 7.29974C15.5 8.11451 15.35 8.88918 15.05 9.62375C14.75 10.3583 14.3146 11.0169 13.7438 11.5995L13.175 11.0232C13.4167 10.7784 13.6313 10.5124 13.8188 10.2253C14.0063 9.93826 14.1667 9.6343 14.3 9.31346C14.4333 8.99261 14.5312 8.66544 14.5938 8.33193C14.6562 7.99842 14.6917 7.65435 14.7 7.29974C14.7 6.95356 14.6667 6.61161 14.6 6.27388C14.5333 5.93615 14.4333 5.60686 14.3 5.28602C14.1667 4.96517 14.0083 4.66332 13.825 4.38047C13.6417 4.09763 13.425 3.82955 13.175 3.57625L13.7438 3ZM12.0437 4.72243C12.3813 5.06438 12.6417 5.45699 12.825 5.90026C13.0083 6.34354 13.1 6.81003 13.1 7.29974C13.1 7.78522 13.0083 8.2496 12.825 8.69288C12.6417 9.13615 12.3813 9.53087 12.0437 9.87704L11.4813 9.30712C11.7438 9.04116 11.9438 8.73509 12.0813 8.38892C12.2188 8.04274 12.2896 7.67968 12.2937 7.29974C12.2937 6.92401 12.225 6.56306 12.0875 6.21689C11.95 5.87071 11.7479 5.56253 11.4813 5.29235L12.0437 4.72243ZM7.51875 5.29235C7.25625 5.55831 7.05417 5.86438 6.9125 6.21055C6.77083 6.55673 6.7 6.91979 6.7 7.29974C6.7 7.67546 6.77083 8.03641 6.9125 8.38259C7.05417 8.72876 7.25625 9.03694 7.51875 9.30712L6.95625 9.87704C6.61875 9.53509 6.35833 9.14248 6.175 8.69921C5.99167 8.25594 5.9 7.78945 5.9 7.29974C5.9 6.81425 5.99167 6.34987 6.175 5.9066C6.35833 5.46332 6.61875 5.0686 6.95625 4.72243L7.51875 5.29235Z" fill="#5E5E5E"/>
</svg>
